<svg xmlns="http://www.w3.org/2000/svg" xmlns:xlink="http://www.w3.org/1999/xlink" viewBox="0 0 1037.25 620.63"><defs><style>.cls-1,.cls-17{fill:none;}.cls-2{fill:#f2e2da;stroke:#000;stroke-width:0.25px;}.cls-10,.cls-17,.cls-2,.cls-4,.cls-7{stroke-miterlimit:10;}.cls-3{fill:#86bb00;stroke:#708e07;stroke-width:3.37px;}.cls-3,.cls-7,.cls-8{stroke-linecap:round;}.cls-3,.cls-8{stroke-linejoin:round;}.cls-4{fill:#ffcf00;stroke:#ffde00;}.cls-17,.cls-4{stroke-width:3px;}.cls-5{clip-path:url(#clip-path);}.cls-6{fill:#ffe000;}.cls-7{fill:#00bb46;stroke:#008e0f;}.cls-7,.cls-8{stroke-width:3.36px;}.cls-8{fill:#ff5f3c;stroke:#ff8155;}.cls-9{fill:#9d4e4e;}.cls-10{fill:#6dc800;stroke:#628036;stroke-width:4px;}.cls-11{fill:#ffd8a9;}.cls-12{fill:#628036;}.cls-13{fill:#b7eb3e;}.cls-14{fill:#e8ff9e;}.cls-15{clip-path:url(#clip-path-2);}.cls-16,.cls-20{font-size:72px;}.cls-16{font-family:AdventPro-Light, Advent Pro;font-weight:300;}.cls-17{stroke:#fdde19;}.cls-18{clip-path:url(#clip-path-3);}.cls-19{font-size:70.53px;fill:#fff;font-family:AdventPro-Bold, Advent Pro;font-weight:700;}.cls-20,.cls-21{fill:#ff1d25;font-family:MyriadPro-Regular, Myriad Pro;}.cls-21{font-size:40.76px;}.cls-22{letter-spacing:-0.04em;}.cls-23{letter-spacing:-0.01em;}</style><clipPath id="clip-path"><path class="cls-1" d="M131.7,126.9c-.07-31.07-20.07-42.61-34.07-43.2v0l-.5,0-.5,0v0C81.63,84.36,62.49,96,62.56,127c.06,30.9,21.07,40,34.07,40.58v0l.5,0,.5,0v0C110.63,167,131.76,157.79,131.7,126.9Z"/></clipPath><clipPath id="clip-path-2"><circle class="cls-1" cx="94.96" cy="245.28" r="40.77" transform="translate(-127.07 104.28) rotate(-36.42)"/></clipPath><clipPath id="clip-path-3"><circle class="cls-1" cx="762.96" cy="345.28" r="40.77" transform="translate(-55.98 520.39) rotate(-36.42)"/></clipPath></defs><title>Asset 1</title><g id="Layer_2" data-name="Layer 2"><g id="Layer_1-2" data-name="Layer 1"><rect class="cls-2" x="0.13" y="0.5" width="1037" height="620"/><path class="cls-3" d="M62.82,66.15S82.31,77.44,85.53,91.67c13.08.27,25.57,0,25.57,0s-1.77-12.78,19.71-22.41c-.88-5.23-15.62-4.69-18.45-1.85.86-6.11-2.31-9,10-25.52-9.26-.09-13.5,3.19-19.7,9.95-3-7.18-4.94-16.55-3.21-23.85,0,0-12,5.76-10.33,26.39-6.11-3.47-11.31-6.84-22.21-5C79.64,52.5,82.61,68.18,82.61,68.18S74.5,62.53,62.82,66.15Z"/><path class="cls-4" d="M131.2,126.9c-.07-31.07-19.07-42.61-34.07-43.2v0s.2,0,0,0,0,0,0,0v0C81.13,84.36,63,96,63.06,127c.06,30.9,20.07,40,34.07,40.58v0s-.21,0,0,0,0,0,0,0v0C110.13,167,131.26,157.79,131.2,126.9Z"/><g class="cls-5"><rect class="cls-6" x="33.83" y="107.4" width="85.43" height="2.62" transform="translate(-54.49 86.24) rotate(-45.12)"/><rect class="cls-6" x="52.16" y="116.95" width="85.43" height="2.62" transform="translate(-55.87 102.03) rotate(-45.12)"/><rect class="cls-6" x="63.52" y="132.61" width="85.43" height="2.62" transform="translate(-63.62 114.69) rotate(-45.12)"/><rect class="cls-6" x="71.41" y="151.78" width="85.43" height="2.62" transform="translate(-74.88 125.93) rotate(-45.12)"/><rect class="cls-6" x="116.19" y="58.06" width="2.62" height="85.43" transform="translate(-36.82 112.92) rotate(-45.12)"/><rect class="cls-6" x="103.15" y="72.03" width="2.62" height="85.43" transform="translate(-50.56 107.79) rotate(-45.12)"/><rect class="cls-6" x="96.21" y="92.1" width="2.62" height="85.43" transform="translate(-66.82 108.79) rotate(-45.12)"/><rect class="cls-6" x="83.17" y="106.94" width="2.62" height="85.43" transform="translate(-81.18 103.91) rotate(-45.12)"/></g><path class="cls-7" d="M20.24,382.44a69.75,69.75,0,0,0,4.56,9.89,76,76,0,0,0,133.72-72.1,69.43,69.43,0,0,0-5.81-9.19"/><path class="cls-8" d="M26.72,378.94a50.63,50.63,0,0,0,3.75,8.68,68.86,68.86,0,0,0,121.28-65.26,53.56,53.56,0,0,0-5.15-8"/><path class="cls-9" d="M44.87,375.69s-1.12,10.41,4,7.73S44.87,375.69,44.87,375.69Z"/><path class="cls-9" d="M68.4,363s-1.11,10.41,4,7.72S68.4,363,68.4,363Z"/><path class="cls-9" d="M91.94,350.33s-1.12,10.4,4,7.72S91.94,350.33,91.94,350.33Z"/><path class="cls-9" d="M115.47,337.64s-1.12,10.41,4,7.73S115.47,337.64,115.47,337.64Z"/><path class="cls-9" d="M139,325s-1.12,10.41,4,7.72S139,325,139,325Z"/><path class="cls-9" d="M139,353.15s-1.12,10.41,4,7.72S139,353.15,139,353.15Z"/><path class="cls-9" d="M113.52,366.89s-1.12,10.41,4,7.72S113.52,366.89,113.52,366.89Z"/><path class="cls-9" d="M88,380.63s-1.12,10.41,4,7.72S88,380.63,88,380.63Z"/><path class="cls-9" d="M62.42,394.16s-1.12,10.41,4,7.73S62.42,394.16,62.42,394.16Z"/><path class="cls-9" d="M139.52,378.91s-1.12,10.41,4,7.72S139.52,378.91,139.52,378.91Z"/><path class="cls-9" d="M114,392.65s-1.11,10.41,4,7.72S114,392.65,114,392.65Z"/><path class="cls-9" d="M88.42,406.18s-1.12,10.41,4,7.72S88.42,406.18,88.42,406.18Z"/><circle class="cls-10" cx="89.18" cy="536.54" r="47.33"/><path class="cls-11" d="M87.81,523.43c.75-2.54,2-2.54,2.73,0s3.09,3.31,5.2,1.69,3.1-.9,2.21,1.61.55,4.49,3.21,4.42,3,1.09.84,2.59-2.19,4,0,5.46,1.81,2.67-.84,2.6-4.11,1.92-3.21,4.42-.11,3.23-2.21,1.6-4.45-.86-5.2,1.69-2,2.55-2.73,0-3.09-3.31-5.19-1.69-3.1.9-2.21-1.6-.56-4.49-3.21-4.42-3-1.09-.85-2.6,2.2-4,0-5.46-1.81-2.67.85-2.59,4.1-1.92,3.21-4.42.1-3.23,2.21-1.61S87.06,526,87.81,523.43Z"/><path class="cls-12" d="M89.08,516.65s6-8.1.43-8.39S89.08,516.65,89.08,516.65Z"/><path class="cls-12" d="M89.51,557.26s-6,8.1-.43,8.39S89.51,557.26,89.51,557.26Z"/><path class="cls-12" d="M74.41,522.34s-1.46-10-5.63-6.24S74.41,522.34,74.41,522.34Z"/><path class="cls-12" d="M103.43,550.75s1.47,10,5.63,6.24S103.43,550.75,103.43,550.75Z"/><path class="cls-12" d="M103.12,522s10-1.46,6.25-5.62S103.12,522,103.12,522Z"/><path class="cls-12" d="M74.72,551.05s-10,1.47-6.24,5.63S74.72,551.05,74.72,551.05Z"/><path class="cls-12" d="M109.6,536.33s8.1,6,8.39.43S109.6,536.33,109.6,536.33Z"/><path class="cls-12" d="M69,536.76s-8.1-6-8.39-.43S69,536.76,69,536.76Z"/><path class="cls-12" d="M78.4,507.2s1.62-5.36-1.35-4.46S78.4,507.2,78.4,507.2Z"/><path class="cls-12" d="M100.19,566.69s-1.62,5.35,1.35,4.45S100.19,566.69,100.19,566.69Z"/><path class="cls-12" d="M60.67,550.42s-5.5-1-4.29,1.82S60.67,550.42,60.67,550.42Z"/><path class="cls-12" d="M117.53,522.49s5.5,1,4.28-1.82S117.53,522.49,117.53,522.49Z"/><path class="cls-12" d="M102.63,508.21s4.93-2.65,2.19-4.11S102.63,508.21,102.63,508.21Z"/><path class="cls-12" d="M76,565.67s-4.93,2.65-2.19,4.11S76,565.67,76,565.67Z"/><path class="cls-12" d="M118.52,548.68s2.83,4.82,4.19,2S118.52,548.68,118.52,548.68Z"/><path class="cls-12" d="M60.07,524.23s-2.83-4.83-4.19-2S60.07,524.23,60.07,524.23Z"/><circle class="cls-13" cx="94.97" cy="245.38" r="48.71"/><circle class="cls-14" cx="94.97" cy="245.38" r="45.36" transform="translate(-145.7 139.03) rotate(-45)"/><circle class="cls-13" cx="94.97" cy="245.39" r="40.52" transform="translate(-168.15 243.79) rotate(-68.49)"/><g class="cls-15"><rect class="cls-14" x="93.62" y="183.05" width="3.51" height="123.74" transform="translate(-15.88 6.79) rotate(-3.77)"/><rect class="cls-14" x="33.1" y="243.63" width="123.74" height="3.51" transform="translate(-15.91 6.77) rotate(-3.77)"/><rect class="cls-14" x="33.26" y="243.17" width="123.42" height="4.45" transform="translate(-152.17 155.07) rotate(-48.77)"/><rect class="cls-14" x="92.74" y="183.58" width="4.45" height="123.42" transform="translate(-152.09 155.03) rotate(-48.77)"/></g><rect x="197.63" y="107" width="49" height="17"/><rect x="197.63" y="128" width="49" height="17"/><text class="cls-16" transform="translate(304.34 145)">7</text><rect x="197.63" y="226" width="49" height="17"/><rect x="197.63" y="247" width="49" height="17"/><rect x="197.63" y="360" width="49" height="17"/><rect x="197.63" y="381" width="49" height="17"/><rect x="197.63" y="515" width="49" height="17"/><rect x="197.63" y="536" width="49" height="17"/><text class="cls-16" transform="translate(304.34 271)">5</text><text class="cls-16" transform="translate(292.34 401)">2</text><text class="cls-16" transform="translate(284.34 558)">3</text><line class="cls-17" x1="519.13" x2="519.13" y2="620"/><circle class="cls-13" cx="762.97" cy="345.38" r="48.71"/><circle class="cls-14" cx="762.97" cy="345.38" r="45.36" transform="translate(-20.75 640.66) rotate(-45)"/><circle class="cls-13" cx="762.97" cy="345.39" r="40.52" transform="translate(161.92 928.62) rotate(-68.49)"/><g class="cls-18"><rect class="cls-14" x="761.62" y="283.05" width="3.51" height="123.74" transform="translate(-21.01 50.89) rotate(-3.77)"/><rect class="cls-14" x="701.1" y="343.63" width="123.74" height="3.51" transform="translate(-21.04 50.86) rotate(-3.77)"/><rect class="cls-14" x="701.26" y="343.17" width="123.42" height="4.45" transform="translate(0.33 691.53) rotate(-48.77)"/><rect class="cls-14" x="760.74" y="283.58" width="4.45" height="123.42" transform="translate(0.41 691.47) rotate(-48.77)"/></g><path class="cls-7" d="M685.24,549.88a71.65,71.65,0,0,0,4.58,10,76.43,76.43,0,1,0,134.56-72.54,70.73,70.73,0,0,0-5.84-9.25"/><path class="cls-8" d="M691.76,546.37a51.53,51.53,0,0,0,3.77,8.73,69.29,69.29,0,0,0,122-65.67,53.67,53.67,0,0,0-5.19-8.08"/><path class="cls-9" d="M710,543.1s-1.13,10.47,4.05,7.77S710,543.1,710,543.1Z"/><path class="cls-9" d="M733.7,530.33s-1.12,10.48,4.06,7.77S733.7,530.33,733.7,530.33Z"/><path class="cls-9" d="M757.38,517.57s-1.12,10.47,4.06,7.77S757.38,517.57,757.38,517.57Z"/><path class="cls-9" d="M781.06,504.81s-1.13,10.47,4.05,7.77S781.06,504.81,781.06,504.81Z"/><path class="cls-9" d="M804.74,492.05s-1.13,10.47,4,7.77S804.74,492.05,804.74,492.05Z"/><path class="cls-9" d="M804.75,520.42s-1.13,10.47,4,7.76S804.75,520.42,804.75,520.42Z"/><path class="cls-9" d="M779.1,534.24s-1.13,10.47,4,7.77S779.1,534.24,779.1,534.24Z"/><path class="cls-9" d="M753.45,548.07s-1.13,10.47,4,7.77S753.45,548.07,753.45,548.07Z"/><path class="cls-9" d="M727.68,561.68s-1.12,10.47,4.06,7.77S727.68,561.68,727.68,561.68Z"/><path class="cls-9" d="M805.26,546.33s-1.13,10.47,4,7.77S805.26,546.33,805.26,546.33Z"/><path class="cls-9" d="M779.61,560.16s-1.13,10.47,4,7.77S779.61,560.16,779.61,560.16Z"/><path class="cls-9" d="M753.84,573.77s-1.12,10.47,4.06,7.77S753.84,573.77,753.84,573.77Z"/><rect x="800.63" y="82" width="90" height="84.27"/><text class="cls-19" transform="translate(828.47 147.3)">B</text><text class="cls-20" transform="translate(634.71 155.57)">Click </text><text class="cls-21" transform="translate(750.1 263.81)">if </text><text class="cls-21" transform="translate(657.1 441.81)">Bigger<tspan class="cls-22" x="110.95" y="0"> </tspan><tspan class="cls-23" x="117.92" y="0">T</tspan><tspan x="137.9" y="0">han </tspan></text></g></g></svg>